<mxfile host="app.diagrams.net" modified="2023-03-14T11:24:28.235Z" agent="5.0 (Windows NT 10.0; Win64; x64) AppleWebKit/537.36 (KHTML, like Gecko) Chrome/111.0.0.0 Safari/537.36" etag="m7D2_u7_CDALtvIj7Z6f" version="21.0.6" type="github">
  <diagram name="第 1 页" id="WiLm61dJJ522gR-LhgyA">
    <mxGraphModel dx="574" dy="331" grid="1" gridSize="10" guides="1" tooltips="1" connect="1" arrows="1" fold="1" page="1" pageScale="1" pageWidth="827" pageHeight="1169" math="0" shadow="0">
      <root>
        <mxCell id="0" />
        <mxCell id="1" parent="0" />
        <mxCell id="FzskPiRlwRoJWsMbWcw--24" value="&lt;br&gt;&lt;br&gt;&lt;br&gt;&lt;br&gt;&lt;br&gt;&lt;br&gt;&lt;br&gt;&lt;br&gt;&lt;br&gt;«C»&lt;br&gt;&lt;b&gt;构件&lt;/b&gt;" style="html=1;dropTarget=0;whiteSpace=wrap;" vertex="1" parent="1">
          <mxGeometry x="130" y="110" width="280" height="160" as="geometry" />
        </mxCell>
        <mxCell id="FzskPiRlwRoJWsMbWcw--25" value="" style="shape=module;jettyWidth=8;jettyHeight=4;" vertex="1" parent="FzskPiRlwRoJWsMbWcw--24">
          <mxGeometry x="1" width="20" height="20" relative="1" as="geometry">
            <mxPoint x="-27" y="7" as="offset" />
          </mxGeometry>
        </mxCell>
        <mxCell id="FzskPiRlwRoJWsMbWcw--9" style="edgeStyle=orthogonalEdgeStyle;rounded=0;orthogonalLoop=1;jettySize=auto;html=1;exitX=1;exitY=0.5;exitDx=0;exitDy=0;entryX=0;entryY=0.5;entryDx=0;entryDy=0;entryPerimeter=0;endArrow=none;endFill=0;" edge="1" parent="1" source="FzskPiRlwRoJWsMbWcw--1" target="FzskPiRlwRoJWsMbWcw--5">
          <mxGeometry relative="1" as="geometry" />
        </mxCell>
        <mxCell id="FzskPiRlwRoJWsMbWcw--15" value="" style="edgeStyle=orthogonalEdgeStyle;rounded=0;orthogonalLoop=1;jettySize=auto;html=1;endArrow=none;endFill=0;" edge="1" parent="1" source="FzskPiRlwRoJWsMbWcw--1" target="FzskPiRlwRoJWsMbWcw--11">
          <mxGeometry relative="1" as="geometry" />
        </mxCell>
        <mxCell id="FzskPiRlwRoJWsMbWcw--1" value="«A»&lt;br&gt;&lt;b&gt;构件&lt;/b&gt;" style="html=1;dropTarget=0;whiteSpace=wrap;" vertex="1" parent="1">
          <mxGeometry x="150" y="160" width="90" height="60" as="geometry" />
        </mxCell>
        <mxCell id="FzskPiRlwRoJWsMbWcw--2" value="" style="shape=module;jettyWidth=8;jettyHeight=4;" vertex="1" parent="FzskPiRlwRoJWsMbWcw--1">
          <mxGeometry x="1" width="20" height="20" relative="1" as="geometry">
            <mxPoint x="-27" y="7" as="offset" />
          </mxGeometry>
        </mxCell>
        <mxCell id="FzskPiRlwRoJWsMbWcw--3" value="«B»&lt;br&gt;&lt;b&gt;构件&lt;/b&gt;" style="html=1;dropTarget=0;whiteSpace=wrap;" vertex="1" parent="1">
          <mxGeometry x="300" y="160" width="90" height="60" as="geometry" />
        </mxCell>
        <mxCell id="FzskPiRlwRoJWsMbWcw--4" value="" style="shape=module;jettyWidth=8;jettyHeight=4;" vertex="1" parent="FzskPiRlwRoJWsMbWcw--3">
          <mxGeometry x="1" width="20" height="20" relative="1" as="geometry">
            <mxPoint x="-27" y="7" as="offset" />
          </mxGeometry>
        </mxCell>
        <mxCell id="FzskPiRlwRoJWsMbWcw--10" style="edgeStyle=orthogonalEdgeStyle;rounded=0;orthogonalLoop=1;jettySize=auto;html=1;exitX=1;exitY=0.5;exitDx=0;exitDy=0;exitPerimeter=0;entryX=0;entryY=0.5;entryDx=0;entryDy=0;endArrow=none;endFill=0;" edge="1" parent="1" source="FzskPiRlwRoJWsMbWcw--5" target="FzskPiRlwRoJWsMbWcw--3">
          <mxGeometry relative="1" as="geometry" />
        </mxCell>
        <mxCell id="FzskPiRlwRoJWsMbWcw--5" value="" style="shape=providedRequiredInterface;html=1;verticalLabelPosition=bottom;sketch=0;" vertex="1" parent="1">
          <mxGeometry x="260" y="180" width="20" height="20" as="geometry" />
        </mxCell>
        <mxCell id="FzskPiRlwRoJWsMbWcw--11" value="" style="shape=requiredInterface;html=1;verticalLabelPosition=bottom;sketch=0;rotation=-90;" vertex="1" parent="1">
          <mxGeometry x="190" y="240" width="10" height="20" as="geometry" />
        </mxCell>
        <mxCell id="FzskPiRlwRoJWsMbWcw--20" style="edgeStyle=orthogonalEdgeStyle;rounded=0;orthogonalLoop=1;jettySize=auto;html=1;exitX=0.5;exitY=1;exitDx=0;exitDy=0;entryX=0.5;entryY=0;entryDx=0;entryDy=0;endArrow=none;endFill=0;" edge="1" parent="1" source="FzskPiRlwRoJWsMbWcw--18" target="FzskPiRlwRoJWsMbWcw--3">
          <mxGeometry relative="1" as="geometry" />
        </mxCell>
        <mxCell id="FzskPiRlwRoJWsMbWcw--18" value="" style="ellipse;direction=west;" vertex="1" parent="1">
          <mxGeometry x="340" y="130" width="10" height="10" as="geometry" />
        </mxCell>
        <mxCell id="FzskPiRlwRoJWsMbWcw--26" value="" style="shape=requiredInterface;html=1;verticalLabelPosition=bottom;sketch=0;rotation=-90;" vertex="1" parent="1">
          <mxGeometry x="190" y="280" width="10" height="20" as="geometry" />
        </mxCell>
        <mxCell id="FzskPiRlwRoJWsMbWcw--27" value="" style="edgeStyle=orthogonalEdgeStyle;rounded=0;orthogonalLoop=1;jettySize=auto;html=1;endArrow=none;endFill=0;exitX=0.227;exitY=1.004;exitDx=0;exitDy=0;exitPerimeter=0;entryX=1;entryY=0.5;entryDx=0;entryDy=0;entryPerimeter=0;" edge="1" parent="1" source="FzskPiRlwRoJWsMbWcw--24" target="FzskPiRlwRoJWsMbWcw--26">
          <mxGeometry relative="1" as="geometry">
            <mxPoint x="205" y="230" as="sourcePoint" />
            <mxPoint x="205" y="255" as="targetPoint" />
            <Array as="points">
              <mxPoint x="194" y="285" />
            </Array>
          </mxGeometry>
        </mxCell>
      </root>
    </mxGraphModel>
  </diagram>
</mxfile>
